<?xml version="1.0" encoding="utf-8"?>
<!-- Generator: Adobe Illustrator 30.1.0, SVG Export Plug-In . SVG Version: 9.03 Build 0)  -->
<svg version="1.1" id="Layer_1" xmlns="http://www.w3.org/2000/svg" xmlns:xlink="http://www.w3.org/1999/xlink" x="0px" y="0px"
	 viewBox="0 0 24 24" enable-background="new 0 0 24 24" xml:space="preserve">
<g>
	<path stroke="#000000" stroke-width="0.75" stroke-miterlimit="10" d="M11.156,1.219C9.3,1.375,8.148,1.697,7.11,2.35
		C5.165,3.572,3.821,6.027,3.718,8.546c-0.046,1.116-0.249,1.414-1.16,1.698c-0.428,0.134-0.577,0.3-0.577,0.642
		c0,0.269,0.818,3.356,0.969,3.659c0.156,0.312,0.256,0.353,0.927,0.383c0.705,0.031,0.725,0.042,1.354,0.751
		c1.744,1.966,4.393,2.85,7.43,2.478c3.816-0.467,5.937-3.868,5.295-8.488c-0.245-1.764-0.875-2.349-2.934-2.726
		c-1.138-0.208-4.148-0.269-5.533-0.111C7.593,7.048,6.801,7.44,6.358,8.384C5.94,9.276,5.932,11.418,6.34,13.303
		c0.14,0.649,0.387,0.869,0.835,0.745c0.377-0.105,0.416-0.307,0.314-1.638C7.26,9.42,7.288,8.898,7.7,8.574
		c0.908-0.715,4.885-0.837,7.875-0.242c0.778,0.155,1.037,0.471,1.159,1.411c0.485,3.748-0.894,6.494-3.55,7.067
		c-0.65,0.14-1.932,0.19-2.7,0.106c-2.162-0.238-3.481-0.859-4.343-2.045c-0.797-1.097-1.271-1.363-2.05-1.154
		c-0.097,0.026-0.132,0.028-0.14,0.006c-0.039-0.116-0.625-2.445-0.617-2.453c0.006-0.006,0.279-0.119,0.607-0.253
		c0.948-0.385,0.891-0.288,0.99-1.678c0.191-2.683,0.728-4.104,2.014-5.328c2.268-2.158,7.247-2.174,9.737-0.03
		c1.477,1.271,2.378,3.496,2.378,5.871c0,0.735,0.074,0.846,0.714,1.075c0.571,0.204,0.947,0.36,0.937,0.39
		c-0.005,0.016-0.133,0.552-0.284,1.191c-0.151,0.639-0.279,1.168-0.284,1.174c-0.006,0.007-0.216,0.012-0.467,0.012
		c-0.735,0-0.892,0.126-1.281,1.025c-1.66,3.839-5.281,5.347-9.99,4.159c-0.887-0.224-0.904-0.211-1.312,0.972
		c-0.744,2.161-0.748,2.146,0.55,2.481c2.565,0.663,5.452,0.605,8.002-0.162c1.459-0.439,1.87-0.77,1.621-1.307
		c-0.185-0.398-0.362-0.41-1.325-0.089c-1.864,0.62-3.784,0.881-5.615,0.765c-0.563-0.036-2.306-0.294-2.362-0.35
		c-0.006-0.006,0.028-0.125,0.076-0.266c0.047-0.14,0.103-0.328,0.124-0.418c0.072-0.313,0.147-0.34,0.768-0.279
		c3.202,0.317,4.155,0.282,5.567-0.199c2.201-0.752,3.692-2.125,4.894-4.509c0.297-0.588,0.233-0.546,0.854-0.562
		c0.808-0.02,0.915-0.111,1.103-0.942c0.049-0.215,0.22-0.955,0.38-1.643c0.456-1.961,0.482-1.877-0.686-2.294
		c-0.718-0.256-0.729-0.266-0.763-0.694c-0.102-1.279-0.236-2.005-0.524-2.848c-1.06-3.102-3.273-4.851-6.664-5.268
		C12.776,1.226,11.444,1.195,11.156,1.219"/>
</g>
</svg>
