<?xml version="1.0" encoding="UTF-8"?>
<svg id="Layer_1" xmlns="http://www.w3.org/2000/svg" version="1.1" viewBox="0 0 400 400">
  <!-- Generator: Adobe Illustrator 30.1.0, SVG Export Plug-In . SVG Version: 2.1.1 Build 136)  -->
  <path d="M184.44,1.26c-34.22,2.88-55.45,8.81-74.58,20.84-35.86,22.54-60.63,67.8-62.53,114.23-.84,20.57-4.59,26.06-21.38,31.3-7.89,2.46-10.64,5.53-10.64,11.84,0,4.96,15.08,61.87,17.87,67.44,2.88,5.75,4.71,6.51,17.09,7.06,12.99.57,13.36.78,24.95,13.85,32.16,36.25,80.98,52.53,136.96,45.69,70.34-8.6,109.45-71.3,97.61-156.47-4.52-32.53-16.12-43.31-54.09-50.25-20.97-3.84-76.47-4.95-102-2.05-34.95,3.97-49.55,11.21-57.7,28.6-7.71,16.44-7.85,55.94-.34,90.68,2.59,11.96,7.14,16.02,15.39,13.73,6.96-1.93,7.67-5.66,5.79-30.19-4.23-55.12-3.7-64.73,3.88-70.7,16.73-13.18,90.06-15.43,145.16-4.46,14.34,2.85,19.12,8.67,21.36,26.01,8.95,69.1-16.48,119.72-65.43,130.28-11.98,2.58-35.61,3.51-49.78,1.95-39.85-4.39-64.18-15.84-80.06-37.7-14.7-20.22-23.43-25.13-37.79-21.27-1.8.48-2.44.51-2.57.11-.72-2.13-11.52-45.08-11.37-45.22.1-.1,5.14-2.2,11.2-4.66,17.48-7.1,16.42-5.3,18.24-30.93,3.51-49.46,13.41-75.65,37.12-98.21,41.81-39.79,133.6-40.07,179.49-.56,27.22,23.43,43.83,64.45,43.83,108.23,0,13.54,1.37,15.6,13.17,19.81,10.53,3.76,17.46,6.63,17.27,7.19-.1.29-2.45,10.18-5.23,21.96-2.78,11.78-5.14,21.52-5.24,21.65-.11.12-3.99.22-8.62.23-13.55,0-16.44,2.32-23.61,18.9-30.6,70.78-97.34,98.56-184.16,76.66-16.35-4.12-16.67-3.88-24.18,17.92-13.72,39.84-13.79,39.56,10.13,45.74,47.28,12.22,100.5,11.14,147.52-2.98,26.9-8.08,34.48-14.2,29.87-24.09-3.41-7.33-6.67-7.55-24.42-1.65-34.35,11.42-69.75,16.24-103.51,14.1-10.38-.66-42.51-5.42-43.54-6.45-.11-.11.52-2.31,1.39-4.9.87-2.59,1.9-6.06,2.28-7.71,1.32-5.77,2.7-6.27,14.15-5.14,59.02,5.84,76.6,5.21,102.62-3.67,40.58-13.86,68.06-39.18,90.22-83.13,5.47-10.85,4.29-10.07,15.74-10.36,14.89-.37,16.86-2.05,20.33-17.36.9-3.97,4.05-17.6,7.01-30.3,8.41-36.16,8.88-34.6-12.65-42.28-13.24-4.72-13.44-4.9-14.07-12.8-1.89-23.59-4.35-36.97-9.66-52.5-19.55-57.18-60.33-89.42-122.86-97.11-5.76-.71-30.32-1.29-35.63-.84" fill="#fff"/>
</svg>