<?xml version="1.0" encoding="UTF-8"?>
<svg id="Layer_1" xmlns="http://www.w3.org/2000/svg" version="1.1" viewBox="0 0 350 100">
  <!-- Generator: Adobe Illustrator 30.1.0, SVG Export Plug-In . SVG Version: 2.1.1 Build 136)  -->
  <path d="M42.34.4c-8.54.72-13.84,2.2-18.61,5.2-8.95,5.62-15.13,16.92-15.61,28.51-.21,5.13-1.15,6.5-5.34,7.81-1.97.61-2.66,1.38-2.66,2.96,0,1.24,3.76,15.44,4.46,16.83.72,1.44,1.18,1.62,4.26,1.76,3.24.14,3.33.19,6.23,3.46,8.03,9.05,20.21,13.11,34.18,11.4,17.55-2.15,27.32-17.8,24.36-39.05-1.13-8.12-4.02-10.81-13.5-12.54-5.23-.96-19.08-1.24-25.46-.51-8.72.99-12.37,2.8-14.4,7.14-1.92,4.1-1.96,13.96-.09,22.63.65,2.98,1.78,4,3.84,3.43,1.74-.48,1.91-1.41,1.45-7.53-1.05-13.76-.92-16.16.97-17.65,4.18-3.29,22.48-3.85,36.23-1.11,3.58.71,4.77,2.16,5.33,6.49,2.23,17.24-4.11,29.88-16.33,32.51-2.99.64-8.89.88-12.42.49-9.95-1.1-16.02-3.95-19.98-9.41-3.67-5.05-5.85-6.27-9.43-5.31-.45.12-.61.13-.64.03-.18-.53-2.88-11.25-2.84-11.29.03-.03,1.28-.55,2.79-1.16,4.36-1.77,4.1-1.32,4.55-7.72.88-12.34,3.35-18.88,9.27-24.51,10.43-9.93,33.34-10,44.8-.14,6.79,5.85,10.94,16.09,10.94,27.01,0,3.38.34,3.89,3.29,4.94,2.63.94,4.36,1.66,4.31,1.79-.02.07-.61,2.54-1.3,5.48-.69,2.94-1.28,5.37-1.31,5.4-.03.03-.99.06-2.15.06-3.38,0-4.1.58-5.89,4.72-7.64,17.66-24.29,24.6-45.96,19.13-4.08-1.03-4.16-.97-6.04,4.47-3.43,9.94-3.44,9.87,2.53,11.41,11.8,3.05,25.08,2.78,36.82-.74,6.71-2.02,8.61-3.54,7.46-6.01-.85-1.83-1.66-1.88-6.1-.41-8.57,2.85-17.41,4.05-25.83,3.52-2.59-.16-10.61-1.35-10.87-1.61-.03-.03.13-.58.35-1.22.22-.65.47-1.51.57-1.92.33-1.44.67-1.57,3.53-1.28,14.73,1.46,19.12,1.3,25.61-.92,10.13-3.46,16.99-9.78,22.52-20.75,1.36-2.71,1.07-2.51,3.93-2.59,3.72-.09,4.21-.51,5.07-4.33.22-.99,1.01-4.39,1.75-7.56,2.1-9.02,2.22-8.64-3.16-10.55-3.31-1.18-3.35-1.22-3.51-3.19-.47-5.89-1.08-9.23-2.41-13.1-4.88-14.27-15.06-22.32-30.66-24.24-1.44-.18-7.57-.32-8.89-.21" fill="#fff"/>
  <g>
    <g>
      <path d="M102.32,73.35c.87-1.41,1.66-2.7,2.46-3.99,3.64-5.87,7.29-11.74,10.91-17.62.33-.53.66-.73,1.29-.73,3.59.03,7.17.03,10.76,0,.58,0,.8.12.8.76-.02,6.94-.02,13.89,0,20.83,0,.55-.14.76-.72.75-1.41-.04-2.83-.04-4.24,0-.62.02-.86-.14-.83-.8.05-1.3-.01-2.61.03-3.92.02-.62-.14-.85-.81-.84-3.02.04-6.03,0-9.05.04-.32,0-.76.26-.94.54-.96,1.45-1.84,2.95-2.78,4.42-.14.23-.41.52-.63.53-2.03.04-4.06.02-6.24.02ZM118.93,63.11c1.06,0,2.12,0,3.18,0,.35,0,.64,0,.64-.49-.01-2.12,0-4.25-.03-6.37,0-.17-.28-.45-.45-.47-.7-.05-1.41-.05-2.11,0-.22.02-.52.18-.64.37-1.35,2.14-2.67,4.29-4.01,6.43-.3.48-.11.53.33.53,1.03-.01,2.06,0,3.1,0Z" fill="#fff"/>
      <path d="M130.14,62.18c0-3.44,0-6.89,0-10.33,0-.5.04-.79.75-.78,5.56.03,11.12-.02,16.67.07,1.29.02,2.66.31,3.85.76,4.86,1.84,6.39,7.17,3.21,10.95-.34.4-.36.63,0,1.02,1.1,1.2,1.52,2.65,1.59,4.16.08,1.57.02,3.15.04,4.72,0,.42-.15.57-.62.57-1.63-.02-3.26-.03-4.89,0-.6.01-.69-.23-.68-.68.02-1.17.02-2.33,0-3.5-.01-.51-.05-1.03-.17-1.53-.25-1.09-1.07-1.66-2.53-1.68-2.57-.05-5.13-.03-7.7-.04-.85,0-1.69.03-2.54-.01-.63-.03-.83.16-.82.73.03,1.98-.01,3.96.03,5.94.01.6-.16.81-.85.78-1.48-.05-2.96-.04-4.44,0-.69.02-.93-.14-.92-.8.04-3.44.02-6.89.02-10.33ZM142.11,60.72c1.54,0,3.08.02,4.62-.01.53-.01,1.09-.08,1.6-.23,1.03-.3,1.61-1.04,1.64-1.93.03-.95-.51-1.71-1.55-2.08-.41-.15-.87-.25-1.31-.25-3.38-.02-6.76,0-10.14-.02-.55,0-.65.21-.64.64.02,1.08.03,2.17,0,3.25-.02.5.17.65.72.64,1.69-.03,3.38-.01,5.07,0Z" fill="#fff"/>
      <path d="M293.31,62.2c0-6.18-5.87-11.18-13.11-11.18s-13.11,5.01-13.11,11.18,5.87,11.18,13.11,11.18,13.11-5.01,13.11-11.18ZM272.95,62.28c0-3.31,3.56-6.32,7.25-6.32s7.4,3.02,7.4,6.32-3.71,6.17-7.4,6.17-7.25-2.86-7.25-6.17Z" fill="#fff"/>
      <path d="M321.04,62.27c0,3.43-.02,6.87.02,10.3,0,.69-.25.8-.85.79-2.83-.02-5.65-.03-8.48,0-.54,0-.81-.17-1.07-.64-2.94-5.31-5.9-10.6-8.86-15.9-.11-.19-.19-.46-.35-.53-.26-.1-.59-.13-.85-.05-.11.03-.17.41-.17.64,0,5.18-.02,10.35,0,15.53,0,.73-.17,1-.93.96-1.33-.06-2.66-.04-3.99,0-.49.01-.66-.14-.66-.65.01-7,.01-14.01,0-21.01,0-.54.18-.69.7-.69,2.91.02,5.82.03,8.72,0,.54,0,.75.26.98.67,2.9,5.24,5.82,10.46,8.73,15.69.13.24.23.55.44.67.23.13.6.16.84.07.14-.06.22-.44.22-.68.01-5.15.03-10.3-.01-15.45,0-.81.22-1.02,1-.98,1.27.07,2.56.05,3.83,0,.63-.02.77.2.77.79-.02,3.49-.01,6.98-.01,10.46Z" fill="#fff"/>
      <path d="M342.41,61.21c1.9,0,3.81.03,5.71-.02.64-.01.79.18.76.75-.06,1.08.04,2.18-.1,3.26-.39,2.92-2.05,5.1-4.79,6.34-5.1,2.32-10.35,2.38-15.42,0-4.2-1.97-6.05-5.46-5.9-9.86.15-4.5,2.47-7.75,6.83-9.45,4.6-1.8,9.31-1.71,13.9.13,2.69,1.07,4.56,2.95,5.24,5.75.16.65.06.92-.75.88-1.41-.07-2.83,0-4.24-.03-.24,0-.6-.16-.68-.33-.68-1.55-1.96-2.38-3.58-2.8-2.06-.55-4.14-.58-6.2-.01-3.28.9-5.08,3.41-4.89,6.75.18,3.2,2.37,5.49,5.83,6.05,2.02.33,4.01.24,5.95-.43,1.16-.4,2.1-1.07,2.72-2.11.3-.51.33-.76-.44-.74-1.88.04-3.76-.02-5.63.03-.67.02-.83-.2-.8-.79.05-.88.05-1.76,0-2.64-.03-.57.13-.76.76-.75,1.9.04,3.81.02,5.71.02Z" fill="#fff"/>
      <path d="M239.37,62.17c0-3.44,0-6.89,0-10.33,0-.5.04-.79.75-.78,5.56.03,11.12-.02,16.67.07,1.29.02,2.66.31,3.85.76,4.86,1.84,6.39,7.17,3.21,10.95-.34.4-.36.63,0,1.02,1.1,1.2,1.52,2.65,1.59,4.16.08,1.57.02,3.15.04,4.72,0,.42-.15.57-.62.57-1.63-.02-3.26-.03-4.89,0-.6.01-.69-.23-.68-.68.02-1.17.02-2.33,0-3.5-.01-.51-.05-1.03-.17-1.53-.25-1.09-1.07-1.66-2.53-1.68-2.57-.05-5.13-.03-7.7-.04-.85,0-1.69.03-2.54-.01-.63-.03-.83.16-.82.73.03,1.98-.01,3.96.03,5.94.01.6-.16.81-.85.78-1.48-.05-2.96-.04-4.44,0-.69.02-.93-.14-.92-.8.04-3.44.02-6.89.02-10.33ZM251.33,60.71c1.54,0,3.08.02,4.62-.01.53-.01,1.09-.08,1.6-.23,1.03-.3,1.61-1.04,1.64-1.93.03-.95-.51-1.71-1.55-2.08-.41-.15-.87-.25-1.31-.25-3.38-.02-6.76,0-10.14-.02-.55,0-.65.21-.64.64.02,1.08.03,2.17,0,3.25-.02.5.17.65.72.64,1.69-.03,3.38-.01,5.07,0Z" fill="#fff"/>
      <path d="M170.37,66.75c.02.07.06.14.11.2.11.14.29.23.48.23.21,0,.39-.1.5-.25.03-.04.06-.09.08-.14,0,0,0,0,0,0,1.81-3.25,3.62-6.5,5.43-9.74.13-.24.23-.55.44-.67.23-.13.6-.16.84-.07.14.06.22.44.22.68.01,5.14.03,10.28-.01,15.42,0,.8.22,1.02,1,.98,1.27-.06,2.56-.05,3.83,0,.63.02.77-.2.77-.79-.02-3.48-.01-6.96-.01-10.44s-.02-6.85.02-10.28c0-.69-.25-.8-.85-.79-2.83.02-5.65.03-8.48,0-.54,0-.81.17-1.07.64-.7,1.27-1.41,2.54-2.12,3.8-.03.06-.06.11-.09.17-.11.15-.29.24-.49.24s-.36-.09-.47-.22c-.04-.07-.08-.14-.12-.21-.71-1.27-1.42-2.54-2.12-3.81-.22-.4-.43-.67-.98-.67-2.91.03-5.82.02-8.72,0-.52,0-.7.15-.7.69.02,6.99.01,13.98,0,20.96,0,.51.17.66.66.65,1.33-.03,2.67-.06,3.99,0,.77.04.94-.22.93-.96-.03-5.17-.02-10.33,0-15.5,0-.22.06-.6.17-.63.26-.08.59-.05.85.05.16.07.25.34.35.53,1.86,3.32,3.71,6.64,5.57,9.96" fill="#fff"/>
      <path d="M201.22,51.01c2.68,0,5.36.02,8.04-.01.64,0,.83.17.8.78-.05,1.14-.05,2.29,0,3.43.03.64-.2.76-.81.76-4.85-.02-9.71-.03-14.56,0-.77,0-1.6.15-2.27.48-.46.23-.85.86-.98,1.37-.16.68.35,1.23,1,1.44.76.24,1.58.43,2.38.44,2.82.05,5.64.01,8.46.02,1.65,0,3.26.27,4.76.97,2.44,1.14,3.75,3.02,3.8,5.63.05,2.58-1.03,4.68-3.47,5.82-1.31.61-2.83,1.08-4.27,1.11-5.36.14-10.72.07-16.08.1-.55,0-.66-.21-.65-.68.03-1.17.04-2.35,0-3.52-.03-.62.17-.78.8-.77,4.82.03,9.65.03,14.47,0,.74,0,1.51-.17,2.22-.41.73-.25,1.19-.81,1.17-1.63-.02-.79-.51-1.29-1.21-1.52-.68-.22-1.42-.35-2.14-.36-2.74-.04-5.47,0-8.21-.02-1.88,0-3.72-.26-5.39-1.15-2.38-1.26-3.52-3.22-3.46-5.83.06-2.54,1.34-4.33,3.66-5.45,1.68-.81,3.49-1.01,5.34-1.01,2.2,0,4.4,0,6.6,0Z" fill="#fff"/>
      <path d="M237.14,51c-.42,0-.83,0-1.25,0h0s-4.01,0-4.01,0h0c-2.29.01-4.57,0-6.86,0s-4.69,0-7.03,0h0s-4.78,0-4.78,0h0c-.36,0-.72,0-1.08,0-.46,0-.63.13-.62.7.04,1.27.02,2.55,0,3.82,0,.42.07.62.49.62.4,0,.8,0,1.2,0h0s4.78,0,4.78,0h0c1.43,0,2.85,0,4.28,0,0,2.03,0,4.06,0,6.08,0,3.45.01,6.91-.01,10.36,0,.59.14.81.76.79,1.38-.05,2.77-.03,4.15,0,.46,0,.67-.09.67-.62-.01-5.54-.01-11.07,0-16.61,1.34,0,2.69,0,4.03,0h0s4.01,0,4.01,0h0c.46,0,.92,0,1.38,0,.42,0,.49-.2.48-.62-.02-1.27-.03-2.55,0-3.82.02-.58-.16-.71-.62-.7Z" fill="#fff"/>
    </g>
    <path d="M177.24,33.25c0-2.18-.02-3.68,0-5.86,0-.58-.15-.8-1.23-.77-2.06.05-2.14.03-4.2,0-.83,0-1.2.09-1.2.59.02,2.37,0,4.73,0,7.1h0c0,2.53,0,5.04.14,7.58.07,1.32,1,2.72,2.17,3.92,2.18,2.23,6.22,3.21,11.17,3.17,5.02-.04,8.64-1.24,10.82-3.47,1.34-1.37,1.86-2.84,1.87-4.35.02-2.28-.05-4.55,0-6.84v-.02c0-2.26.01-4.53.04-6.79,0-.58-.45-.93-1.54-.91-2.11.05-2.76.02-4.78,0-.83,0-.62.73-.62,1.23.02,2.17,0,.76,0,2.93v3.09c0,1.92.11,1.83,0,5.24,0,.14-.1,1.87-.15,2.01-.42,1.55-3.92,2.76-6.02,2.76s-5.82-1.14-6.17-2.76c-.04-.09-.15-.68-.15-.77l-.15-7.1Z" fill="#fff"/>
    <path d="M262.08,31.13c4.72.01,13.23.03,17.95.04.65,0,1.18-.27,1.18-.6v-3.24c0-.33-.52-.6-1.17-.6-7.95-.05-15.9-.02-23.84-.04-1.15,0-1.22.26-1.21.72.03,3.15.01,6.31.01,9.46,0,.33,0,.66,0,.99h0s0,0,0,0c0,3.48.02,6.97-.01,10.45,0,.46.06.72,1.21.72,7.94-.03,15.89,0,23.83-.04.65,0,1.18-.28,1.18-.61v-3.26c0-.34-.54-.61-1.2-.61-1.66,0-3.33,0-4.99,0-3,0-6.01-.02-9.01.01-3.93.04-4.73.08-4.7-.42.06-1.09.04-1.84,0-2.93-.02-.43-.36-1.24.62-1.23,4.71.01,13.37.03,18.09.04.66,0,1.2-.27,1.2-.61v-3.04c0-.33-.53-.6-1.18-.6-1.67,0-3.33,0-5,0-3,0-9.79.02-12.79.05-.98,0-.95-.57-.93-1.08.06-1.09.04-1.53,0-2.62-.02-.43-.21-.93.77-.93Z" fill="#fff"/>
    <path d="M142.95,37.78c0-3.44,0-6.89,0-10.33,0-.5.04-.79.75-.78,5.56.03,11.12-.02,16.67.07,1.29.02,2.66.31,3.85.76,4.86,1.84,6.39,7.17,3.21,10.95-.34.4-.36.63,0,1.02,1.1,1.2,1.52,2.65,1.59,4.16.08,1.57.02,3.15.04,4.72,0,.42-.15.57-.62.57-1.63-.02-3.26-.03-4.89,0-.6.01-.69-.23-.68-.68.02-1.17.02-2.33,0-3.5-.01-.51-.05-1.03-.17-1.53-.25-1.09-1.07-1.66-2.53-1.68-2.57-.05-5.13-.03-7.7-.04-.85,0-1.69.03-2.54-.01-.63-.03-.83.16-.82.73.03,1.98-.01,3.96.03,5.94.01.6-.16.81-.85.78-1.48-.05-2.96-.04-4.44,0-.69.02-.93-.14-.92-.8.04-3.44.02-6.89.02-10.33ZM154.91,36.31c1.54,0,3.08.02,4.62-.01.53-.01,1.09-.08,1.6-.23,1.03-.3,1.61-1.04,1.64-1.93.03-.95-.51-1.71-1.55-2.08-.41-.15-.87-.25-1.31-.25-3.38-.02-6.76,0-10.14-.02-.55,0-.65.21-.64.64.02,1.08.03,2.17,0,3.25-.02.5.17.65.72.64,1.69-.03,3.38-.01,5.07,0Z" fill="#fff"/>
    <path d="M282.78,37.78c0-3.44,0-6.89,0-10.33,0-.5.04-.79.75-.78,5.56.03,11.12-.02,16.67.07,1.29.02,2.66.31,3.85.76,4.86,1.84,6.39,7.17,3.21,10.95-.34.4-.36.63,0,1.02,1.1,1.2,1.52,2.65,1.59,4.16.08,1.57.02,3.15.04,4.72,0,.42-.15.57-.62.57-1.63-.02-3.26-.03-4.89,0-.6.01-.69-.23-.68-.68.02-1.17.02-2.33,0-3.5-.01-.51-.05-1.03-.17-1.53-.25-1.09-1.07-1.66-2.53-1.68-2.57-.05-5.13-.03-7.7-.04-.85,0-1.69.03-2.54-.01-.63-.03-.83.16-.82.73.03,1.98-.01,3.96.03,5.94.01.6-.16.81-.85.78-1.48-.05-2.96-.04-4.44,0-.69.02-.93-.14-.92-.8.04-3.44.02-6.89.02-10.33ZM294.74,36.31c1.54,0,3.08.02,4.62-.01.53-.01,1.09-.08,1.6-.23,1.03-.3,1.61-1.04,1.64-1.93.03-.95-.51-1.71-1.55-2.08-.41-.15-.87-.25-1.31-.25-3.38-.02-6.76,0-10.14-.02-.55,0-.65.21-.64.64.02,1.08.03,2.17,0,3.25-.02.5.17.65.72.64,1.69-.03,3.38-.01,5.07,0Z" fill="#fff"/>
    <path d="M223.44,38.18c-.13-.14-.21-.26-.25-.38h0c.03-.11.11-.23.25-.38,3.19-3.47,1.65-8.36-3.22-10.05-1.2-.42-2.57-.68-3.86-.7-5.57-.08-11.15-.03-16.72-.06-.71,0-.76.26-.75.72.02,3.16,0,6.32,0,9.48,0,.33,0,.66,0,.99h0c0,.33,0,.66,0,.99,0,3.16,0,6.32,0,9.48,0,.46.04.72.75.72,5.57-.03,11.15.02,16.72-.06,1.3-.02,2.66-.28,3.86-.7,4.87-1.69,6.41-6.58,3.22-10.05ZM205.08,31.91c0-.39.09-.59.64-.58,3.39.02,6.78,0,10.17.02.44,0,.9.1,1.32.23,1.04.33,1.58,1.04,1.55,1.91-.03.82-.61,1.49-1.65,1.77-.51.14-1.06.2-1.6.21-1.54.03-3.09,0-4.63,0-1.69,0-3.39-.02-5.08,0-.55,0-.74-.13-.73-.59.04-.99.03-1.99,0-2.98ZM217.21,44.02c-.41.13-.88.23-1.32.23-3.39.02-6.78,0-10.17.02-.55,0-.65-.19-.64-.58.02-.99.03-1.99,0-2.98-.02-.46.17-.6.73-.59,1.69.03,3.39,0,5.08,0,1.54,0,3.09-.02,4.63,0,.54,0,1.09.07,1.6.21,1.03.28,1.62.95,1.65,1.77.03.87-.52,1.57-1.55,1.91Z" fill="#fff"/>
    <path d="M251.82,38.21c-.13-.14-.21-.26-.25-.38h0c.03-.11.11-.23.25-.38,3.19-3.47,1.65-8.36-3.22-10.05-1.2-.42-2.57-.68-3.86-.7-5.57-.08-11.15-.03-16.72-.06-.71,0-.76.26-.75.72.02,3.16,0,6.32,0,9.48,0,.33,0,.66,0,.99h0c0,.33,0,.66,0,.99,0,3.16,0,6.32,0,9.48,0,.46.04.72.75.72,5.57-.03,11.15.02,16.72-.06,1.3-.02,2.66-.28,3.86-.7,4.87-1.69,6.41-6.58,3.22-10.05ZM233.47,31.94c0-.39.09-.59.64-.58,3.39.02,6.78,0,10.17.02.44,0,.9.1,1.32.23,1.04.33,1.58,1.04,1.55,1.91-.03.82-.61,1.49-1.65,1.77-.51.14-1.06.2-1.6.21-1.54.03-3.09,0-4.63,0-1.69,0-3.39-.02-5.08,0-.55,0-.74-.13-.73-.59.04-.99.03-1.99,0-2.98ZM245.6,44.06c-.41.13-.88.23-1.32.23-3.39.02-6.78,0-10.17.02-.55,0-.65-.19-.64-.58.02-.99.03-1.99,0-2.98-.02-.46.17-.6.73-.59,1.69.03,3.39,0,5.08,0,1.54,0,3.09-.02,4.63,0,.54,0,1.09.07,1.6.21,1.03.28,1.62.95,1.65,1.77.03.87-.52,1.57-1.55,1.91Z" fill="#fff"/>
  </g>
</svg>